# xmcd CD database file
#
# Track frame offsets:
#	150
#	27257
#	48269
#	74896
#	104467
#	126196
#	154892
#	182536
#	210409
#
# Disc length: 3381 seconds
#
# Revision: 0
# Processed by: cddbd v1.5.2PL0 Copyright (c) Steve Scherf et al.
# Submitted via: CDex 1.51
#
DISCID=7d0d3309
DTITLE=Michiel Borstlap Trio - 88
DYEAR=2012
DGENRE=Jazz
TTITLE0=Cherish Your Sunshine
TTITLE1=Lexington
TTITLE2=Memory Of Enchantment
TTITLE3=Third Plane
TTITLE4=You Know I Do
TTITLE5=Live DJ
TTITLE6=TZ
TTITLE7=Joe's Will
TTITLE8=Just One Of Those Things
EXTD=YEAR: 2012
EXTT0=
EXTT1=
EXTT2=
EXTT3=
EXTT4=
EXTT5=
EXTT6=
EXTT7=
EXTT8=
PLAYORDER=
